8888888888                888      8888888888                       
888                       888      888                              
888                       888      888                              
8888888  .d88b.   .d88b.  888      8888888 888d888 .d88b.   .d88b.  
888     d8P  Y8b d8P  Y8b 888      888     888P"  d8P  Y8b d8P  Y8b 
888     88888888 88888888 888      888     888    88888888 88888888 
888     Y8b.     Y8b.     888      888     888    Y8b.     Y8b.     
888      "Y8888   "Y8888  888      888     888     "Y8888   "Y8888  

Genre:Drama | Thriller
Language:English
IMDb: 
http://www.imdb.com/title/tt1838544
Source:BluRay.X264-BLOW Thanks!
Subtitles:English
Encoder:Tony


Format : MPEG-4
Format profile : Base Media
Codec ID : isom
File size : 2.24 GiB
Duration : 1h 34mn
Overall bit rate mode : Variable
Overall bit rate : 3 384 Kbps

Video
ID : 1
Format : AVC
Format/Info : Advanced Video Codec
Format profile : High@L5.1
Format settings, CABAC : Yes
Format settings, ReFrames : 3 frames
Codec ID : avc1
Codec ID/Info : Advanced Video Coding
Duration : 1h 34mn
Bit rate : 3 000 Kbps
Maximum bit rate : 18.7 Mbps
Width : 1 280 pixels
Height : 528 pixels
Display aspect ratio : 2.40:1
Frame rate mode : Constant
Frame rate : 23.976 fps
Color space : YUV
Chroma subsampling : 4:2:0
Bit depth : 8 bits
Scan type : Progressive
Bits/(Pixel*Frame) : 0.185
Stream size : 1.95 GiB (87%)
Writing library : x264

Audio
ID : 2
Format : AAC
Format/Info : Advanced Audio Codec
Format profile : LC
Codec ID : 40
Duration : 1h 34mn
Bit rate mode : Variable
Bit rate : 437 Kbps
Maximum bit rate : 590 Kbps
Channel(s) : 6 channels
Channel positions : Front: L C R, Side: L R, LFE
Sampling rate : 48.0 KHz
Compression mode : Lossy
Stream size : 297 MiB (13%)


Plot:
When her sister disappears, Jill is convinced the serial killer who kidnapped her two years ago has returned, and she sets out to once again face her abductor


Screen Shots:
      
http://img16.imageshack.us/img16/5851/vlcsnap2012051120h37m50.png
 
http://img848.imageshack.us/img848/1592/vlcsnap2012051120h38m21.png
 
http://img854.imageshack.us/img854/7692/vlcsnap2012051120h38m29.png
 
http://img688.imageshack.us/img688/4330/vlcsnap2012051120h38m38.png


8888888888                888      8888888888                       
888                       888      888                              
888                       888      888                              
8888888  .d88b.   .d88b.  888      8888888 888d888 .d88b.   .d88b.  
888     d8P  Y8b d8P  Y8b 888      888     888P"  d8P  Y8b d8P  Y8b 
888     88888888 88888888 888      888     888    88888888 88888888 
888     Y8b.     Y8b.     888      888     888    Y8b.     Y8b.     
888      "Y8888   "Y8888  888      888     888     "Y8888   "Y8888  